<?xml version="1.0" encoding="UTF-8"?>
<svg id="horse-chip-template" xmlns="http://www.w3.org/2000/svg" version="1.1" viewBox="0 0 680 340">
  <!-- Generator: Adobe Illustrator 29.8.2, SVG Export Plug-In . SVG Version: 2.1.1 Build 3)  -->
  <g id="head">
    <g id="head1" data-name="head">
      <path d="M226.22,105.89l-22.49-8.78,5.05-3.02-8.34-9.04,3.34-5.27-9.71-7.58-.79-1.89,4.45-6.4-11.41-1.23c-.38-.44-1.62-1.5-2.17-1.86l1.41-7.03-10.78.74c-.86-.63-2.14-.85-2.69-1.21v-1.44s1.32-3.67,1.32-3.67l-11.14-5.04-1.19-1.65,2.95-7.27-11.41,1.53c-.47-.33-1.91-1.07-2.52-1.29l-.16-7.16-10.37,3.29c-.97-.4-2.27-.31-2.89-.53l-1.18-5.42-9.39,4.87c-1.25-.81-2.53-1.6-3.86-2.38-1.55-15.08-5.59-23.14-12.14-24.19-.8-.13-1.46.04-1.98.5-.95.79-1.61,2.4-2,4.83l-1.07,8.14c-.24,1.52-1.23,4.45-2.97,8.78-3.22-5.04-6.48-9.31-9.76-12.8-3.29-3.49-5.87-5.39-7.76-5.69-2.25-.36-3.52.34-3.8,2.09-.19,1.22-.09,2.44.31,3.68l2.67,7.1c.61,1.81,1.43,4.56,2.49,8.24-6.16,2.14-10.32,4.15-12.48,6.03-2.17,1.88-4.9,5.91-8.19,12.1-2.43,4.45-4.8,8.1-7.11,10.93l-8.19,9.94c-3.99,4.91-7.78,10.53-11.36,16.87-3.58,6.34-5.62,11.07-6.12,14.19-.45,2.82,1.25,7.23,5.11,13.23,3.85,6,7.05,9.2,9.6,9.61,2.11.34,6.35-1.72,12.73-6.17-2.41,3.44-5.18,6.08-8.31,7.93,1.52.32,2.56.53,3.15.62,3.13.5,6.1-.39,8.93-2.67,2.82-2.28,6.06-6.41,9.69-12.39,18.64,1.26,25.5-4.07,31.61-3.1,12.02,1.92,24.77-.31,31.21,17.65,3.03,26.07,5.41,41.1,6.78,53.18,2.4,21.25,27.08,20.15,60.12,25.42,33.04,5.27,45.96,1.06,62.44-7.25,93.74-47.25-16.55-77.47-39.58-88.08ZM50.61,97.48c-.36,2.28-1.33,3.59-2.89,3.93-.52.11-1.11.12-1.76.01h0c-.12-.02-.3-.12-.43-.15-.64-.15-1.31-.34-2.11-.73.29-.45.63-.81.96-1.18,1.67-1.9,3.77-2.84,6.37-2.69l-.13.8ZM90.3,46.42l-5.11,6.8c-.39.57-1.61,1.07-3.53,1.51-.43.1-.91.19-1.42.29-.56.1-1.11.21-1.77.3l-1.64,1.14c.86-5.41,2.4-9,4.63-10.8,2.22-1.79,6.2-2.66,11.94-2.6-1.49,1.4-2.53,2.52-3.11,3.37Z"/>
    </g>
  </g>
  <rect id="barrel" x="150.16" y="110.16" width="400" height="100"/>
  <path id="tail" d="M604.37,174.19c-12.93-57.45-53.16-64.03-53.16-64.03,0,0-.32-.07-.81-.13-6.99-6.64-18.34-11.1-36.16-11.51-101.75-2.35-138.26,29.65-138.26,29.65,0,0-17.09,29.65,6.99,56.94,24.08,27.29,51.41,35.01,154.89,36,24.71.24,19.79-32.94,22.12-46.59,1.27-7.46,3.53-20.47-.19-45.91,20.61,20.24,17.77,53.92,20.84,75.96,3.17,22.82,18.05,35.7,18.05,35.7l4.79,11.61,3.58,25.24s10.25-45.48-2.68-102.93Z"/>
  <g id="leg-front-near">
    <path d="M186.13,162.94s-25.44-7.75-.24,54.88c7.95,19.76,20.32,20.15,20.32,20.15l16.17,39.72,4.21,37.69s-9.77,15.09-9.79,20.95,19.25,2.62,19.25,2.62l-.29-11.02s-2.36-7.45,5.39-11.71c7.76-4.27,5.14-9.63.6-15.22s-9.31-76.5,7.95-101.22c15.1-21.62-63.56-36.84-63.56-36.84Z"/>
  </g>
  <g id="leg-front-near1" data-name="leg-front-near">
    <path d="M156.93,165.45s-24.92-9.29-3.58,54.76c6.73,20.21,19.05,21.35,19.05,21.35l13.72,40.63,1.91,37.88s-10.67,14.46-11.05,20.32,19.05,3.79,19.05,3.79l.38-11.02s-1.91-7.58,6.1-11.36,5.72-9.3,1.52-15.15-4.64-76.93,14.1-100.55c16.38-20.66-61.2-40.64-61.2-40.64Z"/>
  </g>
  <g id="leg-hind-far">
    <g id="leg-hind-near">
      <path d="M494.37,170.97s20.52,7.92,17.31,26.32c-3.21,18.4-12.81,23.32-7.99,35.28s11.51,18.41,10.25,29.1-3.21,58.32-3.21,58.32c0,0-8.41,5.7-8.59,10.13s4.99,8.01-.05,11.21l-25.87-.55s16.8-17.55,17.87-23.81c1.07-6.26,5.97-36.07-1.66-49.2-7.64-13.13-102.8-114.66,1.92-96.79Z"/>
    </g>
  </g>
  <g id="leg-hind-near1" data-name="leg-hind-near">
    <path d="M529.69,173.54s20.84,7.39,18.39,25.85-11.85,23.64-6.54,35.45c5.31,11.82,12.26,18.1,11.44,28.81-.82,10.71-.82,58.35-.82,58.35,0,0-8.17,5.91-8.17,10.34s5.31,7.88.41,11.2l-25.88.12s16.07-17.97,16.89-24.25,4.5-36.19-3.68-49.12c-8.17-12.93-107.48-111.9-2.04-96.76Z"/>
  </g>
  <g id="GUIDES" opacity=".9">
    <line y1="110" x2="680" y2="110" fill="none" stroke="#b9533a" stroke-dasharray="5 4" stroke-width=".75"/>
    <line y1="210" x2="680" y2="210" fill="none" stroke="#b9533a" stroke-dasharray="5 4" stroke-width=".75"/>
    <line y1="315" x2="680" y2="315" fill="none" stroke="#7a7a7a"/>
    <line x1="150" y1="92" x2="150" y2="300" fill="none" stroke="#185fa5" stroke-dasharray="4 3" stroke-width=".75"/>
    <line x1="550" y1="92" x2="550" y2="300" fill="none" stroke="#185fa5" stroke-dasharray="4 3" stroke-width=".75"/>
    <rect x="150" y="110" width="400" height="100" fill="none" stroke="#185fa5" stroke-dasharray="6 4" stroke-width=".75"/>
    <rect x="142" y="110" width="16" height="100" fill="#d85a30" fill-opacity=".14"/>
    <rect x="542" y="110" width="16" height="100" fill="#d85a30" fill-opacity=".14"/>
    <circle cx="150" cy="110" r="3.5" fill="#d85a30"/>
    <circle cx="150" cy="210" r="3.5" fill="#d85a30"/>
    <circle cx="550" cy="110" r="3.5" fill="#d85a30"/>
    <circle cx="550" cy="210" r="3.5" fill="#d85a30"/>
    <circle cx="185" cy="210" r="3" fill="#185fa5"/>
    <circle cx="220" cy="210" r="3" fill="#185fa5"/>
    <circle cx="480" cy="210" r="3" fill="#185fa5"/>
    <circle cx="515" cy="210" r="3" fill="#185fa5"/>
    <g isolation="isolate">
      <path d="M9.91,100.77h.97c-.12.34-.4,1.1-.83,2.3-.32.9-.59,1.63-.8,2.2-.51,1.33-.87,2.15-1.07,2.44s-.57.44-1.07.44c-.12,0-.22,0-.29-.01-.07,0-.15-.03-.25-.05v-.8c.15.04.26.07.33.08.07,0,.13.01.18.01.16,0,.28-.03.36-.08.08-.05.14-.12.19-.2.02-.03.07-.16.18-.4.1-.24.17-.42.22-.54l-1.93-5.38h1l1.4,4.26,1.41-4.26Z" fill="#8a5a3a"/>
      <path d="M11.96,101.05v-.67c.63-.06,1.08-.17,1.33-.31.25-.14.44-.49.56-1.03h.69v6.96h-.94v-4.95h-1.65Z" fill="#8a5a3a"/>
      <path d="M16.78,101.05v-.67c.63-.06,1.08-.17,1.33-.31.25-.14.44-.49.56-1.03h.69v6.96h-.94v-4.95h-1.65Z" fill="#8a5a3a"/>
      <path d="M26.05,100.13c.31.58.47,1.37.47,2.37,0,.95-.14,1.74-.42,2.36-.41.89-1.08,1.34-2.01,1.34-.84,0-1.46-.36-1.88-1.09-.34-.61-.51-1.43-.51-2.45,0-.79.1-1.48.31-2.05.38-1.06,1.08-1.59,2.08-1.59.9,0,1.56.37,1.96,1.12ZM25.17,104.78c.27-.4.41-1.16.41-2.26,0-.79-.1-1.45-.29-1.96-.2-.51-.58-.77-1.14-.77-.52,0-.9.24-1.14.73-.24.49-.36,1.2-.36,2.15,0,.71.08,1.29.23,1.72.23.66.64.99,1.2.99.46,0,.82-.2,1.09-.61Z" fill="#8a5a3a"/>
      <path d="M30.3,98.8h.85v2.6c.19-.25.42-.44.69-.57.27-.13.56-.2.87-.2.65,0,1.18.22,1.59.67.41.45.61,1.11.61,1.98,0,.83-.2,1.51-.6,2.06s-.96.82-1.67.82c-.4,0-.74-.1-1.01-.29-.16-.11-.34-.3-.52-.55v.67h-.81v-7.2ZM33.66,104.82c.24-.38.36-.88.36-1.49,0-.55-.12-1.01-.36-1.37-.24-.36-.59-.54-1.05-.54-.4,0-.75.15-1.06.44s-.45.78-.45,1.46c0,.49.06.89.19,1.2.23.58.66.86,1.3.86.48,0,.83-.19,1.07-.57Z" fill="#8a5a3a"/>
      <path d="M38.73,102.83c.2-.03.34-.11.41-.25.04-.08.06-.19.06-.34,0-.3-.11-.52-.32-.65s-.52-.2-.91-.2c-.46,0-.78.12-.97.37-.11.14-.18.34-.21.61h-.82c.02-.65.23-1.1.63-1.35.4-.25.87-.38,1.4-.38.61,0,1.11.12,1.5.35.38.23.57.6.57,1.09v3.01c0,.09.02.17.06.22.04.06.12.08.24.08.04,0,.08,0,.13,0,.05,0,.1-.01.16-.02v.65c-.14.04-.24.06-.31.07s-.17.01-.29.01c-.3,0-.52-.11-.66-.32-.07-.11-.12-.28-.15-.48-.18.23-.44.44-.77.61s-.7.26-1.11.26c-.48,0-.88-.15-1.19-.44s-.46-.66-.46-1.1c0-.48.15-.86.45-1.13s.7-.43,1.19-.49l1.4-.18ZM36.88,105.21c.19.15.41.22.66.22.31,0,.61-.07.9-.21.49-.24.73-.62.73-1.17v-.71c-.11.07-.25.13-.41.17s-.33.08-.5.1l-.53.07c-.32.04-.56.11-.72.2-.27.15-.41.4-.41.73,0,.25.09.45.28.6Z" fill="#8a5a3a"/>
      <path d="M44.95,101.05c.37.29.59.78.67,1.48h-.85c-.05-.32-.17-.59-.36-.8-.19-.21-.48-.32-.89-.32-.56,0-.96.27-1.2.82-.16.35-.23.79-.23,1.31s.11.96.33,1.32c.22.36.57.54,1.04.54.36,0,.65-.11.87-.33.21-.22.36-.53.44-.91h.85c-.1.69-.34,1.2-.73,1.52-.39.32-.89.48-1.5.48-.68,0-1.23-.25-1.64-.75-.41-.5-.61-1.12-.61-1.87,0-.92.22-1.63.67-2.14s1.01-.77,1.7-.77c.59,0,1.07.14,1.44.43Z" fill="#8a5a3a"/>
      <path d="M46.47,98.83h.84v4.17l2.25-2.22h1.12l-2.01,1.94,2.12,3.29h-1.12l-1.65-2.66-.72.7v1.96h-.84v-7.17Z" fill="#8a5a3a"/>
    </g>
    <g isolation="isolate">
      <path d="M9.91,200.77h.97c-.12.34-.4,1.1-.83,2.3-.32.9-.59,1.63-.8,2.2-.51,1.33-.87,2.15-1.07,2.44s-.57.44-1.07.44c-.12,0-.22,0-.29-.01-.07,0-.15-.03-.25-.05v-.8c.15.04.26.07.33.08.07,0,.13.01.18.01.16,0,.28-.03.36-.08.08-.05.14-.12.19-.2.02-.03.07-.16.18-.4.1-.24.17-.42.22-.54l-1.93-5.38h1l1.4,4.26,1.41-4.26Z" fill="#8a5a3a"/>
      <path d="M11.69,204.43c.22-.45.64-.85,1.27-1.22l.94-.54c.42-.24.71-.45.88-.63.27-.27.4-.58.4-.93,0-.41-.12-.73-.37-.97-.24-.24-.57-.36-.98-.36-.6,0-1.02.23-1.25.69-.12.25-.19.58-.21,1.02h-.89c0-.61.12-1.11.34-1.49.38-.68,1.05-1.02,2.02-1.02.8,0,1.39.22,1.76.65s.55.92.55,1.45c0,.56-.2,1.04-.59,1.44-.23.23-.64.51-1.23.84l-.67.37c-.32.18-.57.34-.75.5-.33.28-.53.6-.62.94h3.82v.83h-4.8c.03-.6.16-1.13.37-1.57Z" fill="#8a5a3a"/>
      <path d="M17.52,201.05v-.67c.63-.06,1.08-.17,1.33-.31.25-.14.44-.49.56-1.03h.69v6.96h-.94v-4.95h-1.65Z" fill="#8a5a3a"/>
      <path d="M26.79,200.13c.31.58.47,1.37.47,2.37,0,.95-.14,1.74-.42,2.36-.41.89-1.08,1.34-2.01,1.34-.84,0-1.46-.36-1.88-1.09-.34-.61-.51-1.43-.51-2.45,0-.79.1-1.48.31-2.05.38-1.06,1.08-1.59,2.08-1.59.9,0,1.56.37,1.96,1.12ZM25.91,204.78c.27-.4.41-1.16.41-2.26,0-.79-.1-1.45-.29-1.96-.2-.51-.58-.77-1.14-.77-.52,0-.9.24-1.14.73-.24.49-.36,1.2-.36,2.15,0,.71.08,1.29.23,1.72.23.66.64.99,1.2.99.46,0,.82-.2,1.09-.61Z" fill="#8a5a3a"/>
      <path d="M31.03,198.8h.85v2.6c.19-.25.42-.44.69-.57.27-.13.56-.2.87-.2.65,0,1.18.22,1.59.67.41.45.61,1.11.61,1.98,0,.83-.2,1.51-.6,2.06s-.96.82-1.67.82c-.4,0-.74-.1-1.01-.29-.16-.11-.34-.3-.52-.55v.67h-.81v-7.2ZM34.39,204.82c.24-.38.36-.88.36-1.49,0-.55-.12-1.01-.36-1.37-.24-.36-.59-.54-1.05-.54-.4,0-.75.15-1.06.44s-.45.78-.45,1.46c0,.49.06.89.19,1.2.23.58.66.86,1.3.86.48,0,.83-.19,1.07-.57Z" fill="#8a5a3a"/>
      <path d="M39.9,200.91c.35.17.61.4.79.68.17.26.29.57.35.92.05.24.08.62.08,1.15h-3.8c.02.53.14.96.37,1.28s.59.48,1.08.48c.46,0,.82-.15,1.09-.46.15-.18.26-.38.32-.61h.86c-.02.19-.1.41-.23.64-.13.24-.27.43-.43.58-.27.26-.59.44-.98.53-.21.05-.45.08-.71.08-.65,0-1.2-.24-1.65-.71-.45-.47-.67-1.14-.67-1.99s.23-1.52.68-2.05c.45-.52,1.04-.79,1.78-.79.37,0,.73.09,1.07.26ZM40.21,202.97c-.04-.38-.12-.69-.25-.91-.24-.42-.64-.63-1.2-.63-.4,0-.74.15-1.01.44-.27.29-.41.66-.43,1.11h2.88Z" fill="#8a5a3a"/>
      <path d="M42.25,198.83h.88v7.17h-.88v-7.17Z" fill="#8a5a3a"/>
      <path d="M44.48,198.83h.88v7.17h-.88v-7.17Z" fill="#8a5a3a"/>
      <path d="M49.94,200.77h.97c-.12.34-.4,1.1-.83,2.3-.32.9-.59,1.63-.8,2.2-.51,1.33-.87,2.15-1.07,2.44s-.57.44-1.07.44c-.12,0-.22,0-.29-.01-.07,0-.15-.03-.25-.05v-.8c.15.04.26.07.33.08.07,0,.13.01.18.01.16,0,.28-.03.36-.08.08-.05.14-.12.19-.2.02-.03.07-.16.18-.4.1-.24.17-.42.22-.54l-1.93-5.38h1l1.4,4.26,1.41-4.26Z" fill="#8a5a3a"/>
    </g>
    <g isolation="isolate">
      <path d="M9.91,305.77h.97c-.12.34-.4,1.1-.83,2.3-.32.9-.59,1.63-.8,2.2-.51,1.33-.87,2.15-1.07,2.44s-.57.44-1.07.44c-.12,0-.22,0-.29-.01-.07,0-.15-.03-.25-.05v-.8c.15.04.26.07.33.08.07,0,.13.01.18.01.16,0,.28-.03.36-.08.08-.05.14-.12.19-.2.02-.03.07-.16.18-.4.1-.24.17-.42.22-.54l-1.93-5.38h1l1.4,4.26,1.41-4.26Z" fill="#5a5a5a"/>
      <path d="M11.8,310.51c-.37-.46-.56-1.01-.56-1.66h.92c.04.45.12.78.25.99.23.37.64.55,1.24.55.46,0,.83-.12,1.11-.37s.42-.57.42-.96c0-.48-.15-.82-.44-1.01s-.7-.29-1.23-.29c-.06,0-.12,0-.18,0-.06,0-.12,0-.18,0v-.78c.09,0,.17.02.23.02s.13,0,.2,0c.33,0,.6-.05.81-.16.37-.18.56-.51.56-.98,0-.35-.12-.62-.37-.81s-.54-.28-.86-.28c-.59,0-.99.2-1.22.59-.12.21-.19.52-.21.92h-.87c0-.52.1-.96.31-1.33.36-.65.99-.98,1.89-.98.71,0,1.26.16,1.66.48.39.32.59.78.59,1.38,0,.43-.12.78-.35,1.04-.14.17-.33.3-.56.39.37.1.66.29.86.58.21.29.31.64.31,1.06,0,.67-.22,1.21-.66,1.63s-1.06.63-1.87.63-1.43-.23-1.8-.68Z" fill="#5a5a5a"/>
      <path d="M17.52,306.05v-.67c.63-.06,1.08-.17,1.33-.31.25-.14.44-.49.56-1.03h.69v6.96h-.94v-4.95h-1.65Z" fill="#5a5a5a"/>
      <path d="M23.36,309.22c.06.5.29.85.7,1.04.21.1.45.15.72.15.52,0,.91-.17,1.16-.5s.38-.7.38-1.1c0-.49-.15-.87-.45-1.13s-.66-.4-1.07-.4c-.3,0-.56.06-.78.18s-.4.28-.55.49l-.76-.04.53-3.76h3.63v.85h-2.97l-.3,1.94c.16-.12.32-.22.46-.28.26-.11.56-.16.9-.16.64,0,1.19.21,1.63.62s.67.94.67,1.57-.2,1.24-.61,1.75-1.06.76-1.96.76c-.57,0-1.07-.16-1.51-.48-.44-.32-.68-.81-.73-1.48h.91Z" fill="#5a5a5a"/>
      <path d="M34.01,305.98c.17.11.33.28.51.5v-.66h.81v4.76c0,.66-.1,1.19-.29,1.57-.36.71-1.05,1.06-2.06,1.06-.56,0-1.03-.13-1.42-.38-.38-.25-.6-.65-.64-1.18h.89c.04.23.13.42.25.54.2.2.51.29.93.29.67,0,1.11-.24,1.32-.71.12-.28.18-.78.17-1.5-.18.27-.39.47-.63.6s-.57.2-.98.2c-.56,0-1.06-.2-1.48-.6-.42-.4-.63-1.07-.63-2,0-.88.21-1.56.64-2.05s.94-.74,1.54-.74c.41,0,.77.1,1.07.3ZM34.12,306.92c-.27-.31-.6-.47-1.02-.47-.62,0-1.04.29-1.26.87-.12.31-.18.71-.18,1.22,0,.59.12,1.04.36,1.35.24.31.56.46.96.46.63,0,1.07-.29,1.33-.85.14-.32.21-.7.21-1.13,0-.65-.13-1.13-.4-1.44Z" fill="#5a5a5a"/>
      <path d="M36.69,305.77h.83v.9c.07-.18.24-.39.5-.64.27-.25.57-.38.92-.38.02,0,.04,0,.08,0s.11,0,.2.02v.93c-.05,0-.1-.02-.14-.02s-.09,0-.14,0c-.44,0-.78.14-1.02.43-.24.29-.36.61-.36.98v3.01h-.88v-5.23Z" fill="#5a5a5a"/>
      <path d="M43.79,306.29c.46.45.69,1.11.69,1.98s-.2,1.54-.61,2.09-1.04.82-1.9.82c-.71,0-1.28-.24-1.7-.73-.42-.49-.63-1.14-.63-1.96,0-.88.22-1.58.66-2.1s1.04-.78,1.78-.78c.67,0,1.23.22,1.7.67ZM43.24,309.77c.21-.44.32-.93.32-1.47,0-.49-.08-.88-.23-1.19-.24-.48-.67-.72-1.26-.72-.53,0-.92.21-1.16.61-.24.41-.36.9-.36,1.48s.12,1.02.36,1.39c.24.37.62.56,1.15.56.58,0,.97-.22,1.19-.66Z" fill="#5a5a5a"/>
      <path d="M46.44,305.77v3.47c0,.27.04.49.12.65.15.31.44.47.85.47.6,0,1-.27,1.22-.82.12-.29.18-.7.18-1.21v-2.57h.88v5.23h-.83v-.77c-.1.2-.24.37-.41.5-.33.27-.73.41-1.2.41-.73,0-1.23-.25-1.49-.75-.14-.27-.22-.62-.22-1.07v-3.55h.9Z" fill="#5a5a5a"/>
      <path d="M51.12,305.77h.83v.74c.25-.31.51-.53.79-.66s.58-.2.92-.2c.74,0,1.24.26,1.5.78.14.28.21.69.21,1.22v3.35h-.89v-3.3c0-.32-.05-.58-.14-.77-.16-.33-.44-.49-.85-.49-.21,0-.38.02-.51.06-.24.07-.45.21-.63.43-.15.17-.24.35-.29.54-.04.18-.07.45-.07.79v2.74h-.88v-5.23Z" fill="#5a5a5a"/>
      <path d="M59.56,305.93c.16.1.33.27.53.51v-2.64h.84v7.2h-.79v-.73c-.2.32-.45.55-.72.7-.28.14-.6.21-.96.21-.58,0-1.08-.25-1.51-.73-.42-.49-.64-1.14-.64-1.96,0-.76.19-1.42.58-1.98.39-.56.94-.84,1.66-.84.4,0,.73.08,1,.25ZM57.59,309.85c.24.38.62.57,1.14.57.4,0,.74-.17,1-.52.26-.35.39-.85.39-1.51s-.13-1.15-.4-1.47c-.27-.32-.6-.48-1-.48-.44,0-.8.17-1.07.51-.27.34-.41.84-.41,1.49,0,.56.12,1.03.35,1.41Z" fill="#5a5a5a"/>
    </g>
    <g isolation="isolate">
      <path d="M114.29,80.77h1.14l1.2,1.84,1.22-1.84,1.07.02-1.76,2.52,1.84,2.68h-1.12l-1.3-1.96-1.26,1.96h-1.11l1.84-2.68-1.75-2.55Z" fill="#185fa5"/>
      <path d="M120.1,81.05v-.67c.63-.06,1.08-.17,1.33-.31.25-.14.44-.49.56-1.03h.69v6.96h-.94v-4.95h-1.65Z" fill="#185fa5"/>
      <path d="M125.94,84.22c.06.5.29.85.7,1.04.21.1.45.15.72.15.52,0,.91-.17,1.16-.5s.38-.7.38-1.1c0-.49-.15-.87-.45-1.13s-.66-.4-1.07-.4c-.3,0-.56.06-.78.18s-.4.28-.55.49l-.76-.04.53-3.76h3.63v.85h-2.97l-.3,1.94c.16-.12.32-.22.46-.28.26-.11.56-.16.9-.16.64,0,1.19.21,1.63.62s.67.94.67,1.57-.2,1.24-.61,1.75-1.06.76-1.96.76c-.57,0-1.07-.16-1.51-.48-.44-.32-.68-.81-.73-1.48h.91Z" fill="#185fa5"/>
      <path d="M134.94,80.13c.31.58.47,1.37.47,2.37,0,.95-.14,1.74-.42,2.36-.41.89-1.08,1.34-2.01,1.34-.84,0-1.46-.36-1.88-1.09-.34-.61-.51-1.43-.51-2.45,0-.79.1-1.48.31-2.05.38-1.06,1.08-1.59,2.08-1.59.9,0,1.56.37,1.96,1.12ZM134.05,84.78c.27-.4.41-1.16.41-2.26,0-.79-.1-1.45-.29-1.96-.2-.51-.58-.77-1.14-.77-.52,0-.9.24-1.14.73-.24.49-.36,1.2-.36,2.15,0,.71.08,1.29.23,1.72.23.66.64.99,1.2.99.46,0,.82-.2,1.09-.61Z" fill="#185fa5"/>
      <path d="M139.67,79.17c.21-.3.6-.45,1.19-.45.06,0,.11,0,.17,0s.13,0,.2.01v.8c-.09,0-.16-.01-.2-.01-.04,0-.08,0-.12,0-.27,0-.43.07-.48.21-.05.14-.08.49-.08,1.06h.88v.69h-.88v4.51h-.87v-4.51h-.73v-.69h.73v-.82c.01-.36.08-.63.19-.8Z" fill="#185fa5"/>
      <path d="M142.06,80.77h.83v.9c.07-.18.24-.39.5-.64.27-.25.57-.38.92-.38.02,0,.04,0,.08,0s.11,0,.2.02v.93c-.05,0-.1-.02-.14-.02s-.09,0-.14,0c-.44,0-.78.14-1.02.43-.24.29-.36.61-.36.98v3.01h-.88v-5.23Z" fill="#185fa5"/>
      <path d="M149.15,81.29c.46.45.69,1.11.69,1.98s-.2,1.54-.61,2.09-1.04.82-1.9.82c-.71,0-1.28-.24-1.7-.73-.42-.49-.63-1.14-.63-1.96,0-.88.22-1.58.66-2.1s1.04-.78,1.78-.78c.67,0,1.23.22,1.7.67ZM148.61,84.77c.21-.44.32-.93.32-1.47,0-.49-.08-.88-.23-1.19-.24-.48-.67-.72-1.26-.72-.53,0-.92.21-1.16.61-.24.41-.36.9-.36,1.48s.12,1.02.36,1.39c.24.37.62.56,1.15.56.58,0,.97-.22,1.19-.66Z" fill="#185fa5"/>
      <path d="M150.93,80.77h.83v.74c.25-.31.51-.53.79-.66s.58-.2.92-.2c.74,0,1.24.26,1.5.78.14.28.21.69.21,1.22v3.35h-.89v-3.3c0-.32-.05-.58-.14-.77-.16-.33-.44-.49-.85-.49-.21,0-.38.02-.51.06-.24.07-.45.21-.63.43-.15.17-.24.35-.29.54-.04.18-.07.45-.07.79v2.74h-.88v-5.23Z" fill="#185fa5"/>
      <path d="M156.66,79.31h.89v1.46h.83v.72h-.83v3.41c0,.18.06.3.19.37.07.04.18.05.34.05.04,0,.09,0,.14,0s.11,0,.17-.02v.7c-.1.03-.21.05-.31.06s-.23.02-.35.02c-.41,0-.69-.1-.83-.32-.15-.21-.22-.48-.22-.82v-3.46h-.71v-.72h.71v-1.46Z" fill="#185fa5"/>
      <path d="M162.57,84.36c.03.29.1.52.22.67.23.28.62.42,1.18.42.33,0,.62-.07.88-.21.25-.14.38-.36.38-.66,0-.22-.1-.4-.3-.51-.13-.07-.38-.15-.76-.25l-.71-.18c-.45-.11-.79-.23-1-.37-.38-.24-.58-.57-.58-.99,0-.5.18-.9.54-1.2.36-.31.85-.46,1.46-.46.8,0,1.37.23,1.73.69.22.29.33.61.32.95h-.83c-.02-.2-.09-.38-.21-.54-.21-.23-.56-.34-1.07-.34-.34,0-.6.06-.77.19-.17.13-.26.29-.26.5,0,.23.11.41.34.54.13.08.33.15.59.21l.59.14c.64.15,1.07.3,1.29.44.34.22.51.58.51,1.06s-.18.87-.54,1.21c-.36.34-.9.51-1.63.51-.79,0-1.35-.18-1.67-.53-.33-.35-.5-.79-.53-1.31h.84Z" fill="#185fa5"/>
      <path d="M170.27,80.91c.35.17.61.4.79.68.17.26.29.57.35.92.05.24.08.62.08,1.15h-3.8c.02.53.14.96.37,1.28s.59.48,1.08.48c.46,0,.82-.15,1.09-.46.15-.18.26-.38.32-.61h.86c-.02.19-.1.41-.23.64-.13.24-.27.43-.43.58-.27.26-.59.44-.98.53-.21.05-.45.08-.71.08-.65,0-1.2-.24-1.65-.71-.45-.47-.67-1.14-.67-1.99s.23-1.52.68-2.05c.45-.52,1.04-.79,1.78-.79.37,0,.73.09,1.07.26ZM170.59,82.97c-.04-.38-.12-.69-.25-.91-.24-.42-.64-.63-1.2-.63-.4,0-.74.15-1.01.44-.27.29-.41.66-.43,1.11h2.88Z" fill="#185fa5"/>
      <path d="M175.41,82.83c.2-.03.34-.11.41-.25.04-.08.06-.19.06-.34,0-.3-.11-.52-.32-.65s-.52-.2-.91-.2c-.46,0-.78.12-.97.37-.11.14-.18.34-.21.61h-.82c.02-.65.23-1.1.63-1.35.4-.25.87-.38,1.4-.38.61,0,1.11.12,1.5.35.38.23.57.6.57,1.09v3.01c0,.09.02.17.06.22.04.06.12.08.24.08.04,0,.08,0,.13,0,.05,0,.1-.01.16-.02v.65c-.14.04-.24.06-.31.07s-.17.01-.29.01c-.3,0-.52-.11-.66-.32-.07-.11-.12-.28-.15-.48-.18.23-.44.44-.77.61s-.7.26-1.11.26c-.48,0-.88-.15-1.19-.44s-.46-.66-.46-1.1c0-.48.15-.86.45-1.13s.7-.43,1.19-.49l1.4-.18ZM173.56,85.21c.19.15.41.22.66.22.31,0,.61-.07.9-.21.49-.24.73-.62.73-1.17v-.71c-.11.07-.25.13-.41.17s-.33.08-.5.1l-.53.07c-.32.04-.56.11-.72.2-.27.15-.41.4-.41.73,0,.25.09.45.28.6Z" fill="#185fa5"/>
      <path d="M178.17,80.77h.87v.74c.21-.26.4-.44.57-.56.29-.2.62-.3.99-.3.42,0,.75.1,1.01.31.14.12.27.29.39.52.2-.28.42-.49.69-.62.26-.13.56-.2.89-.2.7,0,1.18.25,1.44.76.14.27.21.64.21,1.1v3.48h-.91v-3.63c0-.35-.09-.59-.26-.72s-.39-.2-.64-.2c-.35,0-.64.12-.89.35s-.37.62-.37,1.16v3.04h-.89v-3.41c0-.35-.04-.61-.13-.78-.13-.24-.38-.37-.75-.37-.33,0-.63.13-.91.39s-.41.72-.41,1.4v2.77h-.88v-5.23Z" fill="#185fa5"/>
    </g>
    <g isolation="isolate">
      <path d="M515.41,80.77h1.14l1.2,1.84,1.22-1.84,1.07.02-1.76,2.52,1.84,2.68h-1.12l-1.3-1.96-1.26,1.96h-1.11l1.84-2.68-1.75-2.55Z" fill="#185fa5"/>
      <path d="M521.5,84.22c.06.5.29.85.7,1.04.21.1.45.15.72.15.52,0,.91-.17,1.16-.5.25-.33.38-.7.38-1.1,0-.49-.15-.87-.45-1.13s-.66-.4-1.07-.4c-.3,0-.56.06-.78.18s-.4.28-.55.49l-.76-.04.53-3.76h3.63v.85h-2.97l-.3,1.94c.16-.12.32-.22.46-.28.26-.11.56-.16.9-.16.64,0,1.19.21,1.63.62.45.41.67.94.67,1.57s-.21,1.24-.61,1.75-1.06.76-1.96.76c-.57,0-1.07-.16-1.51-.48-.44-.32-.68-.81-.73-1.48h.91Z" fill="#185fa5"/>
      <path d="M527.06,84.22c.06.5.29.85.7,1.04.21.1.45.15.72.15.52,0,.91-.17,1.16-.5.25-.33.38-.7.38-1.1,0-.49-.15-.87-.45-1.13s-.66-.4-1.07-.4c-.3,0-.56.06-.78.18s-.4.28-.55.49l-.76-.04.53-3.76h3.63v.85h-2.97l-.3,1.94c.16-.12.32-.22.46-.28.26-.11.56-.16.9-.16.64,0,1.18.21,1.63.62.45.41.67.94.67,1.57s-.2,1.24-.61,1.75-1.06.76-1.96.76c-.57,0-1.07-.16-1.51-.48-.44-.32-.68-.81-.74-1.48h.91Z" fill="#185fa5"/>
      <path d="M536.05,80.13c.31.58.47,1.37.47,2.37,0,.95-.14,1.74-.43,2.36-.41.89-1.08,1.34-2.01,1.34-.84,0-1.46-.36-1.88-1.09-.34-.61-.51-1.43-.51-2.45,0-.79.1-1.48.31-2.05.38-1.06,1.08-1.59,2.09-1.59.9,0,1.56.37,1.96,1.12ZM535.17,84.78c.27-.4.41-1.16.41-2.26,0-.79-.1-1.45-.29-1.96-.2-.51-.58-.77-1.14-.77-.52,0-.9.24-1.14.73-.24.49-.36,1.2-.36,2.15,0,.71.08,1.29.23,1.72.24.66.64.99,1.2.99.46,0,.82-.2,1.09-.61Z" fill="#185fa5"/>
      <path d="M540.39,80.77h.84v.9c.07-.18.24-.39.5-.64.27-.25.58-.38.92-.38.02,0,.04,0,.08,0s.11,0,.2.02v.93c-.05,0-.1-.02-.14-.02s-.09,0-.14,0c-.44,0-.78.14-1.02.43-.24.29-.36.61-.36.98v3.01h-.88v-5.23Z" fill="#185fa5"/>
      <path d="M546.93,80.91c.35.17.61.4.79.68.17.26.29.57.35.92.05.24.08.62.08,1.15h-3.8c.02.53.14.96.37,1.28s.59.48,1.08.48c.46,0,.82-.15,1.09-.46.15-.18.26-.38.32-.61h.87c-.02.19-.1.41-.23.64-.13.24-.27.43-.43.58-.26.26-.59.44-.98.53-.21.05-.45.08-.71.08-.65,0-1.2-.24-1.65-.71-.45-.47-.67-1.14-.67-1.99s.23-1.52.68-2.05,1.04-.79,1.78-.79c.37,0,.73.09,1.07.26ZM547.24,82.97c-.04-.38-.12-.69-.25-.91-.24-.42-.64-.63-1.2-.63-.4,0-.74.15-1.01.44-.27.29-.41.66-.43,1.11h2.88Z" fill="#185fa5"/>
      <path d="M552.06,82.83c.2-.03.34-.11.41-.25.04-.08.06-.19.06-.34,0-.3-.11-.52-.32-.65s-.52-.2-.91-.2c-.46,0-.78.12-.97.37-.11.14-.18.34-.21.61h-.82c.02-.65.23-1.1.63-1.35.4-.25.87-.38,1.4-.38.61,0,1.11.12,1.5.35.38.23.57.6.57,1.09v3.01c0,.09.02.17.06.22.04.06.12.08.24.08.04,0,.08,0,.13,0,.05,0,.1-.01.16-.02v.65c-.14.04-.24.06-.31.07-.07,0-.17.01-.29.01-.3,0-.52-.11-.66-.32-.07-.11-.12-.28-.15-.48-.18.23-.44.44-.77.61-.34.17-.71.26-1.11.26-.48,0-.88-.15-1.19-.44s-.46-.66-.46-1.1c0-.48.15-.86.46-1.13s.7-.43,1.19-.49l1.4-.18ZM550.21,85.21c.19.15.4.22.66.22.31,0,.61-.07.9-.21.49-.24.73-.62.73-1.17v-.71c-.11.07-.24.13-.41.17-.17.05-.33.08-.5.1l-.53.07c-.32.04-.56.11-.72.2-.27.15-.41.4-.41.73,0,.25.09.45.28.6Z" fill="#185fa5"/>
      <path d="M554.85,80.77h.84v.9c.07-.18.24-.39.5-.64.27-.25.58-.38.92-.38.02,0,.04,0,.08,0s.11,0,.2.02v.93c-.05,0-.1-.02-.14-.02s-.09,0-.14,0c-.44,0-.78.14-1.02.43-.24.29-.36.61-.36.98v3.01h-.88v-5.23Z" fill="#185fa5"/>
      <path d="M561.45,84.36c.03.29.1.52.22.67.23.28.62.42,1.18.42.33,0,.62-.07.88-.21.25-.14.38-.36.38-.66,0-.22-.1-.4-.3-.51-.13-.07-.38-.15-.76-.25l-.71-.18c-.45-.11-.79-.23-1-.37-.38-.24-.58-.57-.58-.99,0-.5.18-.9.54-1.2.36-.31.85-.46,1.46-.46.8,0,1.37.23,1.73.69.22.29.33.61.32.95h-.83c-.02-.2-.09-.38-.21-.54-.21-.23-.57-.34-1.08-.34-.34,0-.6.06-.77.19-.17.13-.26.29-.26.5,0,.23.11.41.34.54.13.08.33.15.59.21l.59.14c.64.15,1.07.3,1.29.44.34.22.51.58.51,1.06s-.18.87-.54,1.21-.9.51-1.63.51c-.79,0-1.34-.18-1.67-.53-.33-.35-.5-.79-.53-1.31h.85Z" fill="#185fa5"/>
      <path d="M569.16,80.91c.35.17.61.4.79.68.17.26.29.57.35.92.05.24.08.62.08,1.15h-3.8c.02.53.14.96.37,1.28s.59.48,1.08.48c.46,0,.82-.15,1.09-.46.15-.18.26-.38.32-.61h.86c-.02.19-.1.41-.23.64-.13.24-.27.43-.43.58-.27.26-.59.44-.98.53-.21.05-.45.08-.71.08-.65,0-1.2-.24-1.64-.71-.45-.47-.67-1.14-.67-1.99s.23-1.52.68-2.05c.45-.52,1.04-.79,1.78-.79.37,0,.73.09,1.07.26ZM569.47,82.97c-.04-.38-.12-.69-.25-.91-.24-.42-.64-.63-1.2-.63-.4,0-.74.15-1.01.44-.27.29-.42.66-.43,1.11h2.88Z" fill="#185fa5"/>
      <path d="M574.29,82.83c.2-.03.34-.11.4-.25.04-.08.06-.19.06-.34,0-.3-.11-.52-.32-.65s-.52-.2-.91-.2c-.46,0-.78.12-.97.37-.11.14-.18.34-.21.61h-.82c.02-.65.22-1.1.63-1.35s.87-.38,1.4-.38c.61,0,1.11.12,1.5.35.38.23.57.6.57,1.09v3.01c0,.09.02.17.06.22.04.06.12.08.24.08.04,0,.08,0,.13,0,.05,0,.1-.01.16-.02v.65c-.14.04-.24.06-.31.07-.07,0-.17.01-.29.01-.3,0-.52-.11-.66-.32-.07-.11-.12-.28-.15-.48-.18.23-.44.44-.77.61-.33.17-.7.26-1.11.26-.49,0-.88-.15-1.19-.44s-.46-.66-.46-1.1c0-.48.15-.86.45-1.13s.7-.43,1.19-.49l1.4-.18ZM572.44,85.21c.19.15.41.22.66.22.31,0,.61-.07.9-.21.49-.24.73-.62.73-1.17v-.71c-.11.07-.25.13-.41.17-.17.05-.34.08-.5.1l-.53.07c-.32.04-.56.11-.72.2-.27.15-.41.4-.41.73,0,.25.09.45.28.6Z" fill="#185fa5"/>
      <path d="M577.05,80.77h.87v.74c.21-.26.4-.44.57-.56.29-.2.62-.3.99-.3.42,0,.75.1,1.01.31.14.12.27.29.39.52.2-.28.43-.49.69-.62.26-.13.56-.2.89-.2.7,0,1.18.25,1.44.76.14.27.21.64.21,1.1v3.48h-.91v-3.63c0-.35-.09-.59-.26-.72s-.39-.2-.64-.2c-.34,0-.64.12-.89.35s-.37.62-.37,1.16v3.04h-.89v-3.41c0-.35-.04-.61-.13-.78-.13-.24-.38-.37-.75-.37-.33,0-.63.13-.91.39s-.41.72-.41,1.4v2.77h-.88v-5.23Z" fill="#185fa5"/>
    </g>
  </g>
</svg>