<?xml version="1.0" encoding="UTF-8"?>
<svg id="Layer_1" xmlns="http://www.w3.org/2000/svg" baseProfile="tiny" version="1.2" viewBox="65 253 508 160">
  <!-- Generator: Adobe Illustrator 29.8.2, SVG Export Plug-In . SVG Version: 2.1.1 Build 3)  -->
  <path d="M138.18,347.81c2.37,1.37,5.94,2.06,10.72,2.06s8.18-.19,10.22-.57c2.03-.38,3.64-.92,4.83-1.63,1.99-1.23,2.98-3.34,2.98-6.32v-14.97c0-3.36-1.06-5.77-3.19-7.24-2.32-1.56-5.82-2.34-10.5-2.34-7.81,0-12.81.67-15.01,2.02-2.2,1.35-3.3,3.87-3.3,7.56v14.33c0,3.45,1.09,5.82,3.26,7.1Z" fill="none"/>
  <path d="M219.44,327.16l.07-3.83c0-4.59-5.09-6.88-15.26-6.88-12.11,0-18.17,3.97-18.17,11.92l33.28-.57c0-.09.02-.31.07-.64Z" fill="none"/>
  <path d="M383.36,347.81c2.36,1.37,5.94,2.06,10.71,2.06s8.18-.19,10.22-.57c2.03-.38,3.64-.92,4.83-1.63,1.99-1.23,2.98-3.34,2.98-6.32v-14.97c0-3.36-1.06-5.77-3.19-7.24-2.32-1.56-5.82-2.34-10.5-2.34-7.81,0-12.81.67-15.01,2.02-2.2,1.35-3.3,3.87-3.3,7.56v14.33c0,3.45,1.09,5.82,3.26,7.1Z" fill="none"/>
  <path d="M91.56,349.94c2.08.57,4.49.85,7.24.85s5.08-.33,7.03-.99c1.94-.66,3.62-1.51,5.04-2.55,2.98-2.18,4.47-4.59,4.47-7.24l.28-14.41c0-2.98-1.3-5.42-3.9-7.31-2.65-1.89-5.95-2.84-9.9-2.84s-7.08.47-9.4,1.42c-2.32.95-4.19,2.08-5.61,3.41-2.6,2.51-3.9,5.2-3.9,8.09v12.7c0,4.26,2.89,7.21,8.66,8.87Z" fill="none"/>
  <path d="M547.43,316.44c-12.11,0-18.17,3.97-18.17,11.92l33.28-.57c0-.09.02-.31.07-.64l.07-3.83c0-4.59-5.09-6.88-15.26-6.88Z" fill="none"/>
  <path d="M300.83,281.97c-.06.1-.13.19-.19.31.05-.11.12-.21.19-.31,0,0,0,0,0,0Z" fill="#fff"/>
  <path d="M300.65,282.27c.21.06.38.08.53.09h0c-.16-.01-.33-.03-.53-.09Z" fill="#fff"/>
  <path d="M301.29,282.38s-.08-.02-.11-.02h0s.08.02.11.02h0Z" fill="#fff"/>
  <path d="M302.26,281.12h0c-.63.06-1.1.35-1.42.85,0,0,0,0,0,0,.33-.5.8-.79,1.42-.85Z" fill="#fff"/>
  <path d="M300.83,281.97c-.06.1-.13.19-.19.31.21.06.38.08.53.09-.14-.12-.25-.25-.35-.39Z" fill="#fff"/>
  <path d="M300.83,281.97c.1.14.21.28.35.39.03,0,.08.02.11.02.64,0,.97-.36.97-1.07v-.19c-.63.06-1.1.35-1.42.85Z" fill="#fff"/>
  <path d="M310.43,267.29c-1.38.2-2.3.54-2.76,1.03.46-.49,1.38-.84,2.76-1.03Z" fill="#fff"/>
  <path d="M308.06,270.39c-.1.04-.21.08-.33.12.12-.04.23-.08.33-.12Z" fill="#fff"/>
  <path d="M306.98,270.96l.35-.32c.15-.05.28-.09.41-.13.12-.04.23-.08.33-.12.44-.17.71-.33.79-.47l.97-1.74c.11-.21.31-.51.62-.88-1.38.2-2.3.54-2.76,1.03-.47.49-.7,1.37-.7,2.64Z" fill="#fff"/>
  <g>
    <path d="M82.34,379.1v-1.28l.14-9.37c.05-2.88.09-6.08.14-9.58.9,2.18,2.15,4.09,3.76,5.75,3.59,3.83,8.3,5.75,14.12,5.75,3.41,0,6.34-.45,8.8-1.35,7.38-2.7,11.07-8.16,11.07-16.39l.57-40.24c0-4.3-1.61-7.97-4.83-11-1.61-1.51-3.57-2.72-5.89-3.62-2.32-.9-4.59-1.35-6.81-1.35s-4,.17-5.32.5c-5.96,1.47-10.74,5.04-14.33,10.72l.57-10.64-16.39.28-.28,21.36h8.59c.95,0,1.42.59,1.42,1.77l-.57,59.68c0,1.09-.59,1.63-1.77,1.63h-1.49c-.81,0-1.64-.01-2.52-.04-.88-.02-1.91-.06-3.09-.11v21.08l22.64.28.64-21.22h-6.74c-1.61,0-2.41-.88-2.41-2.63ZM82.9,328.37c0-2.89,1.3-5.58,3.9-8.09,1.42-1.32,3.29-2.46,5.61-3.41,2.32-.95,5.45-1.42,9.4-1.42s7.25.95,9.9,2.84c2.6,1.89,3.9,4.33,3.9,7.31l-.28,14.41c0,2.65-1.49,5.06-4.47,7.24-1.42,1.04-3.1,1.89-5.04,2.55-1.94.66-4.28.99-7.03.99s-5.16-.28-7.24-.85c-5.77-1.66-8.66-4.61-8.66-8.87v-12.7Z"/>
    <path d="M132.36,363.71c2.84,4.54,9.13,6.81,18.88,6.81,6.48,0,11.47-1.37,14.97-4.12,1.51-1.18,2.85-2.9,4.01-5.15,1.16-2.25,1.74-6.23,1.74-11.96v-38.89c0-2.41-.66-4.8-1.99-7.17-2.6-4.64-8.85-6.95-18.73-6.95-6.91,0-12.04,1.06-15.4,3.19-1.56.99-2.73,2.15-3.51,3.48-.78,1.33-1.34,2.76-1.67,4.29-.33,1.54-.5,3.12-.5,4.75s-.02,3.93-.07,6.88c-.05,2.96-.1,6.45-.14,10.47l-.14,15.75v4.54c0,1.47.04,3.55.11,6.25.07,2.7.89,5.3,2.45,7.81ZM134.92,326.38c0-3.69,1.1-6.21,3.3-7.56,2.2-1.35,7.2-2.02,15.01-2.02,4.68,0,8.18.78,10.5,2.34,2.13,1.47,3.19,3.88,3.19,7.24v14.97c0,2.98-.99,5.09-2.98,6.32-1.18.71-2.79,1.25-4.83,1.63-2.03.38-5.44.57-10.22.57s-8.35-.69-10.72-2.06c-2.18-1.28-3.26-3.64-3.26-7.1v-14.33Z"/>
    <path d="M200.35,370.94c7.1,0,12.35-.73,15.75-2.2,2.22-.95,4.01-2.35,5.36-4.22,1.35-1.87,2.02-4.81,2.02-8.83s.19-9.53.57-16.53l-4.83.57v4.4c0,1.66-1.28,3-3.83,4.04-2.55,1.04-6.32,1.56-11.28,1.56-11.92,0-17.88-3.52-17.88-10.57v-5.54l37.97-.85c.38-8.89.57-14.1.57-15.61s.01-2.92.04-4.22c.02-1.3-.1-2.7-.35-4.19-.26-1.49-.76-3-1.49-4.54-.73-1.54-1.86-2.92-3.37-4.15-1.51-1.23-3.51-2.24-6-3.02-2.48-.78-6.22-1.17-11.21-1.17s-9.5,1.25-13.52,3.76c-4.92,3.08-7.38,7.78-7.38,14.12l-.64,38.46c0,12.49,6.5,18.73,19.52,18.73ZM204.25,316.44c10.17,0,15.26,2.3,15.26,6.88l-.07,3.83c-.05.33-.07.54-.07.64l-33.28.57c0-7.95,6.06-11.92,18.17-11.92Z"/>
    <path d="M238.28,319.18c.26.26.39.86.39,1.81v34.98c0,9.51,4.66,14.26,13.98,14.26,2.89,0,5.27-.33,7.17-.99,5.06-1.85,7.52-6.55,7.38-14.12l-.14-8.59v-11.92h-5.11v8.73c0,4.5-3,6.74-9.01,6.74s-9.01-2.25-9.01-6.74v-22.35c0-1.47.5-2.2,1.49-2.2h19.02v-21.79h-18.17c-.9,0-1.51-.11-1.85-.32-.33-.21-.5-.65-.5-1.31v-13.62l-5.25-.14c-.05.81-.07,1.82-.07,3.05v3.69l.07,7.03c0,.47-.11.86-.32,1.17-.21.31-.86.46-1.95.46h-6.46l-.14,21.79h6.6c.99,0,1.62.13,1.88.39Z"/>
    <path d="M288.06,370.38c4.07,0,7.19-1.28,9.37-3.83.95-1.09,1.63-2.31,2.06-3.65.43-1.35.64-3,.64-4.97s-.97-4.06-2.91-6.28c-2.18-2.51-5.18-3.76-9.01-3.76-4.5,0-7.78,1.33-9.86,3.97-.9,1.14-1.51,2.35-1.84,3.65-.33,1.3-.5,2.57-.5,3.8,0,2.93.9,5.39,2.7,7.38,2.18,2.46,5.3,3.69,9.37,3.69Z"/>
    <path d="M377.54,363.71c2.84,4.54,9.13,6.81,18.88,6.81,6.48,0,11.47-1.37,14.97-4.12,1.51-1.18,2.85-2.9,4.01-5.15,1.16-2.25,1.74-6.23,1.74-11.96v-38.89c0-2.41-.66-4.8-1.99-7.17-2.6-4.64-8.85-6.95-18.73-6.95-6.91,0-12.04,1.06-15.4,3.19-1.56.99-2.73,2.15-3.51,3.48-.78,1.33-1.34,2.76-1.67,4.29-.33,1.54-.5,3.12-.5,4.75s-.02,3.93-.07,6.88c-.05,2.96-.1,6.45-.14,10.47l-.14,15.75v4.54c0,1.47.04,3.55.11,6.25.07,2.7.89,5.3,2.45,7.81ZM380.1,326.38c0-3.69,1.1-6.21,3.3-7.56,2.2-1.35,7.2-2.02,15.01-2.02,4.68,0,8.18.78,10.5,2.34,2.13,1.47,3.19,3.88,3.19,7.24v14.97c0,2.98-.99,5.09-2.98,6.32-1.18.71-2.79,1.25-4.83,1.63-2.03.38-5.44.57-10.22.57s-8.35-.69-10.71-2.06c-2.18-1.28-3.26-3.64-3.26-7.1v-14.33Z"/>
    <path d="M436.23,320.56v2.2l-.14,21.57v2.34c0,1.28-.59,1.92-1.77,1.92h-9.44l.28,21.08h27.46l-.14-21.08h-9.86c-.9,0-1.35-.64-1.35-1.92l.35-21.5c0-1.66,1.25-3.24,3.76-4.75,2.89-1.75,6.32-2.63,10.29-2.63s6.65.97,8.44,2.91c.85.99,1.28,2.58,1.28,4.75l-.07,2.55c-.05.52-.07,1.04-.07,1.56l4.97-.14c.09-5.96.18-10.63.25-14.02.07-3.38.12-6.06.14-8.02.02-1.96.05-3.73.07-5.29.02-1.56.05-2.84.07-3.83.02-.99.04-1.56.04-1.7-8.42,0-15.19,1.25-20.3,3.76-2.7,1.32-5.56,4-8.59,8.02l.14-11.21-18.17-.14v21.79h10.15c1.47,0,2.2.59,2.2,1.77Z"/>
    <path d="M481.75,336.1c1.54.62,3.63.97,6.28,1.06,2.65.1,5.26.15,7.84.18,2.58.02,4.91.08,6.99.18,4.73.28,7.1,2.81,7.1,7.59,0,2.7-1.25,4.59-3.76,5.68-1.23.47-2.71.8-4.44.99-1.73.19-3.57.28-5.54.28s-3.8-.05-5.5-.14c-5.96-.24-8.94-1.94-8.94-5.11v-2.55c0-.85.01-1.63.04-2.34.02-.71.06-1.4.11-2.06h-5.54l-.71,29.8h5.46v-9.3c.8,2.03,2.03,3.81,3.69,5.32,1.28,1.18,2.99,2.26,5.14,3.23s4.84,1.45,8.05,1.45,5.91-.38,8.09-1.14c6.15-2.22,9.23-6.69,9.23-13.41v-10.72c0-3.74-1.11-6.76-3.34-9.08-1.09-1.18-2.45-2.12-4.08-2.8-1.63-.69-3.88-1.1-6.74-1.24-2.86-.14-5.45-.24-7.77-.28-2.32-.05-4.52-.15-6.6-.32-2.08-.17-3.76-.84-5.04-2.02-.81-.76-1.21-2.39-1.21-4.9,0-5.35,4.71-8.02,14.12-8.02,2.55,0,4.68.24,6.39.71,4.64,1.28,6.95,3.52,6.95,6.74v3.48h5.39l.57-30.37h-5.68v7.73c-3.26-5.54-9.06-8.3-17.39-8.3-3.88,0-7.43,1.18-10.64,3.55-3.41,2.55-5.11,6.01-5.11,10.36v16.32c0,2.89.92,5.25,2.77,7.1.99.95,2.26,1.73,3.8,2.34Z"/>
    <path d="M567.62,308.75c-.26-1.49-.76-3-1.49-4.54-.73-1.54-1.86-2.92-3.37-4.15-1.51-1.23-3.51-2.24-6-3.02-2.48-.78-6.22-1.17-11.21-1.17s-9.5,1.25-13.52,3.76c-4.92,3.08-7.38,7.78-7.38,14.12l-.64,38.46c0,12.49,6.5,18.73,19.51,18.73,7.1,0,12.35-.73,15.75-2.2,2.22-.95,4.01-2.35,5.36-4.22,1.35-1.87,2.02-4.81,2.02-8.83s.19-9.53.57-16.53l-4.83.57v4.4c0,1.66-1.28,3-3.83,4.04-2.55,1.04-6.32,1.56-11.28,1.56-11.92,0-17.88-3.52-17.88-10.57v-5.54l37.97-.85c.38-8.89.57-14.1.57-15.61s.01-2.92.04-4.22c.02-1.3-.09-2.7-.35-4.19ZM562.61,327.16c-.05.33-.07.54-.07.64l-33.28.57c0-7.95,6.05-11.92,18.17-11.92,10.17,0,15.26,2.3,15.26,6.88l-.07,3.83Z"/>
    <path d="M302.39,286.75c.52,0,1.46-.63,2.81-1.88-.45.88-1.01,1.58-1.69,2.12.38.02.63.03.78.03.77,0,1.45-.31,2.04-.94.59-.63,1.21-1.69,1.85-3.19,1.88-.32,3.42-.86,4.62-1.61.06-.04.12-.09.19-.13,1.44-.9,1.97-1.96,3.17-2.87.74-.57,1.43.04,1.59.21.17.17.25.51.25,1.03l-.43,67.02c0,1.47-.57,2.2-1.7,2.2h-8.02l.14,20.93,23.7-.14v-20.93h-6.53c-1.47,0-2.2-.73-2.2-2.2v-17.88c0-2.65,1.37-5.11,4.12-7.38,1.32-1.14,2.99-2.07,5-2.8,2.01-.73,4.86-1.1,8.55-1.1s6.88,1.02,9.58,3.05c2.37,1.75,3.55,3.83,3.55,6.24v19.44c0,.81-.25,1.44-.75,1.92-.5.47-1.12.71-1.88.71h-7.1v20.93l23.99.14v-20.79h-7.59c-.71,0-1.17-.17-1.38-.5-.21-.33-.32-.9-.32-1.7l.43-29.88c0-3.78-.53-7.04-1.56-9.8.08-.04.17-.06.3-.06.9,0,1.52.71,1.88,2.12.36,1.41.66,4.33.9,8.76.23,4.14.61,7.1,1.15,8.89.38,1.26.98,2.24,1.8,2.96.82.71,1.75,1.07,2.8,1.07.62,0,1.14-.13,1.55-.4.41-.27.61-.6.61-1.01,0-.22-.07-.4-.21-.56-.14-.16-.31-.24-.5-.24-.29,0-.57.14-.83.42l-.58.64c-.24.24-.48.37-.73.37-1.3,0-2.09-1.76-2.37-5.28l-.15-1.74c-.03-.41-.06-1-.11-1.79-.05-1.14-.09-1.82-.11-2.05l-.14-1.75-.15-1.78c-.23-2.91-.63-5.01-1.18-6.29-.44-1.01-1.02-1.8-1.74-2.35-.72-.55-1.53-.83-2.42-.83-.04,0-.07.01-.11.01-.39-.92-.84-1.78-1.36-2.57-2.84-4.54-7.43-6.81-13.77-6.81-3.55,0-6.53.52-8.94,1.56-4.54,2.08-7.9,4.94-10.08,8.59l.07-19.92.85.21v-2.28s.55-.59.55-.59l1.7.44v-2.93s1.44-.31,1.44-.31l-.46-2.92.17-.45,1.8-.31-1.77-2.15c0-.14-.04-.53-.07-.68l1.37-.94-1.98-1.71c-.05-.25-.23-.51-.27-.66l.9-.93-2.17-1.32c-.67-.95-1.28-1.59-1.97-2.13l-1.91-2.39s-.03.07-.05.1c.01-.03.03-.07.04-.1-1.36-.88-2.9-1.64-4.63-2.29-.95-3.4-2.23-5.09-3.83-5.09-.2,0-.35.06-.46.19-.2.21-.29.61-.29,1.18l.05,1.9c0,.36-.13,1.06-.38,2.12-.97-1.04-1.91-1.89-2.83-2.57-.92-.68-1.61-1.02-2.08-1.02-.55,0-.83.21-.83.62,0,.29.07.56.21.83l.91,1.53c.21.39.52.99.91,1.8-1.39.72-2.31,1.33-2.76,1.84-.45.51-.95,1.53-1.5,3.07-.41,1.11-.84,2.03-1.29,2.76l-1.58,2.57c-.77,1.27-1.46,2.69-2.08,4.28-.62,1.58-.92,2.74-.92,3.47,0,.66.58,1.61,1.73,2.84,1.15,1.23,2.04,1.85,2.67,1.85ZM300.65,282.27c.05-.11.12-.21.19-.31.33-.5.8-.79,1.42-.85v.19c0,.54-.18.87-.54,1.01-.12.04-.26.07-.42.07h0s-.08-.02-.11-.02c-.16-.01-.33-.03-.53-.09ZM309.82,268.17l-.97,1.74c-.07.15-.35.3-.79.47-.1.04-.21.08-.33.12-.13.04-.26.09-.41.13l-.35.32c0-1.27.23-2.15.7-2.64.46-.49,1.38-.84,2.76-1.03-.3.38-.51.67-.62.88Z"/>
    <polygon points="96.41 402.95 565.51 402.95 566.28 381.79 97.17 381.79 96.41 402.95"/>
  </g>
</svg>